<svg width="155" height="70" viewBox="0 0 155 70" fill="none" xmlns="http://www.w3.org/2000/svg">
  <path fill-rule="evenodd" clip-rule="evenodd"
        d="M1.5 35C1.5 16.6365 16.3865 1.75 34.75 1.75H46V28.5H30.5V17.2475C22.4706 19.1627 16.5 26.3841 16.5 35C16.5 45.0792 24.6708 53.25 34.75 53.25H85.875C89.2577 53.25 92 50.5077 92 47.125C92 43.7423 89.2577 41 85.875 41H65.625C54.7864 41 46 32.2136 46 21.375C46 10.5364 54.7864 1.75 65.625 1.75H120.25C138.613 1.75 153.5 16.6365 153.5 35C153.5 53.3635 138.613 68.25 120.25 68.25H108V41H123V53.0442C131.774 51.7181 138.5 44.1445 138.5 35C138.5 24.9208 130.329 16.75 120.25 16.75H65.625C63.0707 16.75 61 18.8207 61 21.375C61 23.9293 63.0707 26 65.625 26H85.875C97.542 26 107 35.458 107 47.125C107 58.792 97.542 68.25 85.875 68.25H34.75C16.3865 68.25 1.5 53.3635 1.5 35Z"
        fill="url(#paint0_linear_204_679)" stroke="white" stroke-width="3"/>
  <defs>
    <linearGradient id="paint0_linear_204_679" x1="3.5" y1="39" x2="154" y2="39" gradientUnits="userSpaceOnUse">
      <stop offset="0" stop-color="#20519F"/>
      <stop offset="0.322917" stop-color="#308882"/>
      <stop offset="0.671875" stop-color="#74B35B"/>
      <stop offset="0.984375" stop-color="#EECD3F"/>
    </linearGradient>
  </defs>
</svg>
