<svg width="32" height="32" viewBox="0 0 32 32" fill="none" xmlns="http://www.w3.org/2000/svg">
<path fill-rule="evenodd" clip-rule="evenodd" d="M26.7125 10.2875L19.7125 3.28749C19.522 3.10176 19.266 2.99849 19 2.99999H7C6.46957 2.99999 5.96086 3.2107 5.58579 3.58577C5.21071 3.96084 5 4.46955 5 4.99999V27C5 27.5304 5.21071 28.0391 5.58579 28.4142C5.96086 28.7893 6.46957 29 7 29H25C25.5304 29 26.0391 28.7893 26.4142 28.4142C26.7893 28.0391 27 27.5304 27 27V11C27.0015 10.7339 26.8982 10.478 26.7125 10.2875ZM19 11V5.49999L24.5 11H19ZM20.5303 18.5303L17.0303 22.0303C16.7374 22.3232 16.2626 22.3232 15.9697 22.0303C15.6768 21.7374 15.6768 21.2626 15.9697 20.9697L18.1893 18.75H12C11.5858 18.75 11.25 18.4142 11.25 18C11.25 17.5858 11.5858 17.25 12 17.25H18.1893L15.9697 15.0303C15.6768 14.7374 15.6768 14.2626 15.9697 13.9697C16.2626 13.6768 16.7374 13.6768 17.0303 13.9697L20.5303 17.4697C20.6022 17.5416 20.6565 17.6245 20.6931 17.7129C20.7298 17.8013 20.75 17.8983 20.75 18C20.75 18.1017 20.7298 18.1987 20.6931 18.2871C20.6565 18.3755 20.6022 18.4584 20.5303 18.5303Z" fill="#98A2B3"/>
</svg>
